<svg width="30" height="30" viewBox="0 0 30 30" fill="none" xmlns="http://www.w3.org/2000/svg">
<g id="happy-face">
<path id="Oval" d="M10 17.5C10.8224 18.9645 12.8612 20 15.003 20C17.1357 20 19.1705 18.9618 20 17.5037" stroke="#1E1E1E" stroke-width="1.5" stroke-linecap="round"/>
<path id="Oval_2" fill-rule="evenodd" clip-rule="evenodd" d="M11.25 12.5C11.9404 12.5 12.5 11.9404 12.5 11.25C12.5 10.5596 11.9404 10 11.25 10C10.5596 10 10 10.5596 10 11.25C10 11.9404 10.5596 12.5 11.25 12.5Z" fill="#1E1E1E"/>
<path id="Oval_3" fill-rule="evenodd" clip-rule="evenodd" d="M18.75 12.5C19.4404 12.5 20 11.9404 20 11.25C20 10.5596 19.4404 10 18.75 10C18.0596 10 17.5 10.5596 17.5 11.25C17.5 11.9404 18.0596 12.5 18.75 12.5Z" fill="#1E1E1E"/>
<path id="Oval_4" fill-rule="evenodd" clip-rule="evenodd" d="M15 26.25C21.2132 26.25 26.25 21.2132 26.25 15C26.25 8.7868 21.2132 3.75 15 3.75C8.7868 3.75 3.75 8.7868 3.75 15C3.75 21.2132 8.7868 26.25 15 26.25Z" stroke="#1E1E1E" stroke-width="1.5"/>
</g>
</svg>
