<svg width="10" height="10" viewBox="0 0 10 10" fill="none" xmlns="http://www.w3.org/2000/svg">
<g id="ph:chat-circle">
<path id="Vector" d="M4.938 8.93652C4.2653 8.93683 3.6034 8.76739 3.0136 8.44389L1.86312 8.77254C1.75762 8.80268 1.64597 8.80407 1.53975 8.77654C1.43353 8.74902 1.3366 8.69359 1.25901 8.616C1.18142 8.53842 1.12599 8.44149 1.09846 8.33527C1.07093 8.22906 1.0723 8.11741 1.10244 8.0119L1.43113 6.86146C1.00918 6.09284 0.851462 5.20686 0.98226 4.33984C1.11306 3.47282 1.52512 2.6728 2.15505 2.06287C2.78497 1.45293 3.59786 1.06688 4.46864 0.964102C5.33943 0.861325 6.21986 1.04752 6.97448 1.49404C7.72909 1.94056 8.31609 2.62266 8.64514 3.4354C8.9742 4.24815 9.02709 5.1465 8.79567 5.99223C8.56425 6.83797 8.06135 7.58424 7.36434 8.11622C6.66733 8.6482 5.81482 8.93641 4.938 8.93652V8.93652ZM3.05368 7.80473C3.10904 7.80473 3.16339 7.81968 3.21097 7.848C3.91975 8.26831 4.75759 8.41543 5.56716 8.26173C6.37674 8.10804 7.10236 7.6641 7.6078 7.01328C8.11323 6.36246 8.3637 5.54951 8.31219 4.72709C8.26067 3.90467 7.91071 3.12933 7.32801 2.54667C6.74531 1.96401 5.96995 1.6141 5.14752 1.56263C4.3251 1.51117 3.51217 1.76169 2.86138 2.26717C2.21059 2.77265 1.7667 3.4983 1.61306 4.30789C1.45942 5.11747 1.60659 5.9553 2.02695 6.66406C2.04838 6.70009 2.06223 6.74012 2.06763 6.7817C2.07303 6.82328 2.06988 6.86552 2.05837 6.90584L1.69406 8.18092L2.96915 7.81661C2.99664 7.80876 3.02509 7.80477 3.05368 7.80477V7.80473Z" fill="#1E1E1E"/>
</g>
</svg>
