<svg width="10" height="10" viewBox="0 0 10 10" fill="none" xmlns="http://www.w3.org/2000/svg">
<g id="clarity:heart-line">
<path id="Vector" d="M5.05469 8.99072C4.99254 8.99053 4.9322 8.97006 4.8831 8.93252C3.3191 7.73515 2.24173 6.70408 1.48786 5.68687C0.525834 4.38695 0.306424 3.18681 0.835259 2.11971C1.21219 1.3575 2.29518 0.73387 3.56101 1.09696C4.16454 1.26873 4.69111 1.6371 5.05469 2.14189C5.41827 1.6371 5.94483 1.26873 6.54836 1.09696C7.81138 0.739413 8.89718 1.3575 9.27412 2.11971C9.80295 3.18681 9.58354 4.38695 8.62151 5.68687C7.86764 6.70408 6.79028 7.73515 5.22628 8.93252C5.17718 8.97006 5.11684 8.99053 5.05469 8.99072V8.99072ZM2.84089 1.54875C2.5397 1.5372 2.241 1.60669 1.97685 1.74976C1.71271 1.89284 1.4931 2.10409 1.34159 2.36085C0.905583 3.24225 1.10249 4.22342 1.94356 5.35704C2.8374 6.49304 3.88405 7.50383 5.05469 8.36155C6.22514 7.50468 7.27178 6.49483 8.16581 5.35981C9.0097 4.22342 9.20379 3.24225 8.76778 2.36362C8.48649 1.80928 7.6426 1.36859 6.70308 1.62912C6.40182 1.71685 6.12254 1.86575 5.88322 2.06624C5.64389 2.26673 5.44981 2.51438 5.31348 2.79323C5.29229 2.84407 5.25623 2.88755 5.2099 2.91815C5.16357 2.94875 5.10906 2.96509 5.05328 2.96509C4.99751 2.96509 4.94299 2.94875 4.89666 2.91815C4.85033 2.88755 4.81428 2.84407 4.79308 2.79323C4.65777 2.51368 4.46403 2.26546 4.22455 2.06484C3.98508 1.86422 3.70527 1.71574 3.40348 1.62912C3.22064 1.5768 3.0313 1.54974 2.84089 1.54875V1.54875Z" fill="#1E1E1E"/>
</g>
</svg>
