<svg xmlns="http://www.w3.org/2000/svg" width="18" height="18" viewBox="0 0 17 18" fill="none">
    <path d="M10 17C10 17.2652 9.89464 17.5196 9.70711 17.7071C9.51957 17.8946 9.26522 18 9 18H3C2.20435 18 1.44129 17.6839 0.87868 17.1213C0.316071 16.5587 0 15.7956 0 15V3C0 2.20435 0.316071 1.44129 0.87868 0.87868C1.44129 0.316071 2.20435 0 3 0H9C9.26522 0 9.51957 0.105357 9.70711 0.292893C9.89464 0.48043 10 0.734784 10 1C10 1.26522 9.89464 1.51957 9.70711 1.70711C9.51957 1.89464 9.26522 2 9 2H3C2.73478 2 2.48043 2.10536 2.29289 2.29289C2.10536 2.48043 2 2.73478 2 3V15C2 15.2652 2.10536 15.5196 2.29289 15.7071C2.48043 15.8946 2.73478 16 3 16H9C9.26522 16 9.51957 16.1054 9.70711 16.2929C9.89464 16.4804 10 16.7348 10 17ZM16.6 8.4L12.6 4.4C12.5231 4.31342 12.4292 4.24347 12.3243 4.19447C12.2193 4.14546 12.1054 4.11842 11.9897 4.11501C11.8739 4.1116 11.7586 4.1319 11.651 4.17465C11.5433 4.21739 11.4455 4.2817 11.3636 4.3636C11.2817 4.44551 11.2174 4.5433 11.1746 4.65095C11.1319 4.75861 11.1116 4.87387 11.115 4.98966C11.1184 5.10544 11.1455 5.21931 11.1945 5.32426C11.2435 5.42922 11.3134 5.52305 11.4 5.6L13.8 8H6C5.73478 8 5.48043 8.10536 5.29289 8.29289C5.10536 8.48043 5 8.73478 5 9C5 9.26522 5.10536 9.51957 5.29289 9.70711C5.48043 9.89464 5.73478 10 6 10H13.8L11.4 12.4C11.256 12.562 11.1793 12.773 11.1857 12.9897C11.1921 13.2063 11.281 13.4124 11.4343 13.5657C11.5876 13.719 11.7937 13.8079 12.0103 13.8143C12.227 13.8207 12.438 13.744 12.6 13.6L16.6 9.6C16.7588 9.44068 16.8479 9.22492 16.8479 9C16.8479 8.77508 16.7588 8.55932 16.6 8.4V8.4Z" fill="white"/>
</svg>