<svg width="24" height="24" viewBox="0 0 24 24" fill="none" xmlns="http://www.w3.org/2000/svg">
<g id="controls-at">
<path id="Vector" d="M13 18C13 16.8954 13.8954 16 15 16C16.1046 16 17 16.8954 17 18M13 18C13 19.1046 13.8954 20 15 20C16.1046 20 17 19.1046 17 18M13 18L4 18M17 18L20 18M13 6C13 4.89543 13.8954 4 15 4C16.1046 4 17 4.89543 17 6M13 6C13 7.10457 13.8954 8 15 8C16.1046 8 17 7.10457 17 6M13 6L4 6M17 6L20 6M7 12C7 10.8954 7.89543 10 9 10C10.1046 10 11 10.8954 11 12M7 12C7 13.1046 7.89543 14 9 14C10.1046 14 11 13.1046 11 12M7 12L4 12M11 12L20 12" stroke="#212121" stroke-width="1.5" stroke-linecap="round" stroke-linejoin="round"/>
</g>
</svg>
