<svg xmlns="http://www.w3.org/2000/svg" width="26" height="26" viewBox="0 0 24 24" fill="none">
    <g clip-path="url(#clip0_17949_90544)">
        <path fill-rule="evenodd" clip-rule="evenodd" d="M5.84212 8.67009C5.12465 9.99618 4.85453 11.5185 5.07195 13.0105C5.28937 14.5025 5.9827 15.8844 7.04878 16.9506C8.11486 18.0167 9.49669 18.7102 10.9887 18.9278C12.4806 19.1454 14.0029 18.8754 15.3291 18.1581L14.2091 17.0371C13.513 17.3433 12.7606 17.501 12.0001 17.5001C10.5419 17.4985 9.14389 16.9185 8.11279 15.8874C7.08168 14.8563 6.50171 13.4583 6.50012 12.0001C6.50068 11.2403 6.65867 10.4888 6.96412 9.79309L5.84212 8.67009ZM17.0371 14.2091C17.3433 13.5129 17.501 12.7606 17.5001 12.0001C17.5001 8.96709 15.0331 6.50009 12.0001 6.50009C11.2403 6.50065 10.4888 6.65863 9.79312 6.96409L8.67012 5.84209C9.99619 5.12503 11.5183 4.85523 13.0101 5.07282C14.5018 5.29042 15.8834 5.98379 16.9494 7.04977C18.0154 8.11576 18.7088 9.49739 18.9264 10.9891C19.144 12.4809 18.8742 14.003 18.1571 15.3291L17.0371 14.2091Z" fill="#ffffff"/>
        <path d="M6.17525 4.93719C5.83354 4.59548 5.27952 4.59548 4.93781 4.93719C4.5961 5.2789 4.5961 5.83292 4.93781 6.17463L17.8255 19.0624C18.1672 19.4041 18.7213 19.4041 19.063 19.0624C19.4047 18.7206 19.4047 18.1666 19.063 17.8249L6.17525 4.93719Z" fill="#ffffff"/>
    </g>
    <defs>
        <clipPath id="clip0_17949_90544">
            <rect width="26" height="26" fill="white"/>
        </clipPath>
    </defs>
</svg>