<svg width="24" height="24" viewBox="0 0 24 24" fill="none" xmlns="http://www.w3.org/2000/svg">
<g id="filter">
<path id="Combined Shape" d="M4.41043 5.61557L4.98442 5.13284L4.98442 5.13284L4.41043 5.61557ZM19.6457 5.61557L19.0717 5.13284L19.0717 5.13284L19.6457 5.61557ZM13.7998 17.1501L14.2498 17.7501L13.7998 17.1501ZM14.1171 12.1893L14.6911 12.672L14.1171 12.1893ZM9.88242 12.1219L10.4564 11.6392L9.88242 12.1219ZM10.4564 11.6392L4.98442 5.13284L3.83644 6.09831L9.30843 12.6047L10.4564 11.6392ZM4.98442 5.13284C4.84765 4.97021 4.96326 4.72192 5.17575 4.72192V3.22192C3.68833 3.22192 2.87906 4.95996 3.83644 6.09831L4.98442 5.13284ZM5.17575 4.72192H18.8804V3.22192H5.17575V4.72192ZM18.8804 4.72192C19.0929 4.72192 19.2085 4.97021 19.0717 5.13284L20.2197 6.09831C21.1771 4.95996 20.3678 3.22192 18.8804 3.22192V4.72192ZM19.0717 5.13284L13.5431 11.7066L14.6911 12.672L20.2197 6.09831L19.0717 5.13284ZM13.2498 12.5111V16.7501H14.7498V12.5111H13.2498ZM13.3498 16.5501L10.3498 18.8001L11.2498 20.0001L14.2498 17.7501L13.3498 16.5501ZM10.7498 19.0001V12.4438H9.24976V19.0001H10.7498ZM10.3498 18.8001C10.5146 18.6765 10.7498 18.7941 10.7498 19.0001H9.24976C9.24976 20.0302 10.4257 20.6181 11.2498 20.0001L10.3498 18.8001ZM13.2498 16.7501C13.2498 16.6714 13.2868 16.5973 13.3498 16.5501L14.2498 17.7501C14.5645 17.514 14.7498 17.1435 14.7498 16.7501H13.2498ZM13.5431 11.7066C13.3536 11.9319 13.2498 12.2168 13.2498 12.5111H14.7498C14.7498 12.57 14.729 12.627 14.6911 12.672L13.5431 11.7066ZM9.30843 12.6047C9.27053 12.5596 9.24976 12.5026 9.24976 12.4438H10.7498C10.7498 12.1494 10.6459 11.8645 10.4564 11.6392L9.30843 12.6047Z" fill="#1E1E1E"/>
</g>
</svg>
