<svg width="20" height="20" viewBox="0 0 20 20" fill="none" xmlns="http://www.w3.org/2000/svg">
<g id="happy-face">
<path id="Oval" d="M6.66797 11.6667C7.21624 12.6431 8.57541 13.3334 10.0033 13.3334C11.4251 13.3334 12.7816 12.6413 13.3346 11.6692" stroke="#1E1E1E" stroke-width="1.5" stroke-linecap="round"/>
<path id="Oval_2" fill-rule="evenodd" clip-rule="evenodd" d="M7.5013 8.33341C7.96154 8.33341 8.33464 7.96032 8.33464 7.50008C8.33464 7.03984 7.96154 6.66675 7.5013 6.66675C7.04106 6.66675 6.66797 7.03984 6.66797 7.50008C6.66797 7.96032 7.04106 8.33341 7.5013 8.33341Z" fill="#1E1E1E"/>
<path id="Oval_3" fill-rule="evenodd" clip-rule="evenodd" d="M12.5013 8.33341C12.9615 8.33341 13.3346 7.96032 13.3346 7.50008C13.3346 7.03984 12.9615 6.66675 12.5013 6.66675C12.0411 6.66675 11.668 7.03984 11.668 7.50008C11.668 7.96032 12.0411 8.33341 12.5013 8.33341Z" fill="#1E1E1E"/>
<path id="Oval_4" fill-rule="evenodd" clip-rule="evenodd" d="M10 17.5C14.1421 17.5 17.5 14.1421 17.5 10C17.5 5.85786 14.1421 2.5 10 2.5C5.85786 2.5 2.5 5.85786 2.5 10C2.5 14.1421 5.85786 17.5 10 17.5Z" stroke="#1E1E1E" stroke-width="1.5"/>
</g>
</svg>
