<svg width="16" height="14" viewBox="0 0 16 14" fill="none" xmlns="http://www.w3.org/2000/svg">
<path id="Vector" d="M8.00059 13.4141C7.90239 13.4138 7.80706 13.3809 7.72948 13.3207C5.25837 11.4007 3.55615 9.74741 2.36504 8.11629C0.845036 6.03185 0.49837 4.1074 1.33393 2.39629C1.92948 1.17407 3.64059 0.17407 5.64059 0.756292C6.59417 1.03173 7.42614 1.62242 8.00059 2.43185C8.57504 1.62242 9.40702 1.03173 10.3606 0.756292C12.3561 0.182959 14.0717 1.17407 14.6673 2.39629C15.5028 4.1074 15.1561 6.03185 13.6361 8.11629C12.445 9.74741 10.7428 11.4007 8.2717 13.3207C8.19413 13.3809 8.09879 13.4138 8.00059 13.4141ZM4.50282 1.48074C4.02693 1.46222 3.55498 1.57365 3.13763 1.80307C2.72029 2.03249 2.3733 2.37124 2.13393 2.78296C1.44504 4.19629 1.75615 5.76963 3.08504 7.5874C4.49729 9.409 6.151 11.0298 8.00059 12.4052C9.84989 11.0312 11.5036 9.41187 12.9161 7.59185C14.2495 5.76963 14.5561 4.19629 13.8673 2.7874C13.4228 1.89851 12.0895 1.19185 10.605 1.60963C10.1291 1.75029 9.6878 1.98906 9.30966 2.31055C8.93153 2.63204 8.62489 3.02914 8.40948 3.47629C8.376 3.55781 8.31904 3.62753 8.24583 3.6766C8.17263 3.72566 8.0865 3.75186 7.99837 3.75186C7.91025 3.75186 7.82411 3.72566 7.75091 3.6766C7.67771 3.62753 7.62074 3.55781 7.58726 3.47629C7.37347 3.02802 7.06736 2.62999 6.68899 2.3083C6.31062 1.98661 5.86853 1.74851 5.3917 1.60963C5.1028 1.52572 4.80365 1.48234 4.50282 1.48074Z" fill="#1E1E1E" stroke="#1E1E1E" stroke-width="0.5"/>
</svg>
