<svg width="17" height="16" viewBox="0 0 17 16" fill="none" xmlns="http://www.w3.org/2000/svg">
<g id="people">
<path id="Stroke 1 Copy" d="M1.66406 12C1.66406 10.5 3.66406 10.5 4.66406 9.5C5.16406 9 3.66406 9 3.66406 6.5C3.66406 4.8335 4.33056 4 5.66406 4C6.99756 4 7.66406 4.8335 7.66406 6.5C7.66406 9 6.16406 9 6.66406 9.5C7.66406 10.5 9.66406 10.5 9.66406 12" stroke="#1E1E1E" stroke-width="1.5" stroke-linecap="round"/>
<path id="Stroke 1 Copy 2" d="M9 10.6667C9.378 10.4062 9.53537 10.3807 10.0049 10.1545C10.372 9.9777 10.7262 9.7773 11.0035 9.5C11.5035 9 10.0035 9 10.0035 6.5C10.0035 4.8335 10.67 4 12.0035 4C13.337 4 14.0035 4.8335 14.0035 6.5C14.0035 9 12.5035 9 13.0035 9.5C14.0035 10.5 16.0035 10.5 16.0035 12" stroke="#1E1E1E" stroke-width="1.5" stroke-linecap="round"/>
</g>
</svg>
