<svg width="20" height="20" viewBox="0 0 20 20" fill="none" xmlns="http://www.w3.org/2000/svg">
<g id="help">
<path id="Oval 2" d="M10.0015 11.6667C10.0015 10 11.3148 9.72108 11.767 9.26996C12.2207 8.81738 12.5015 8.19147 12.5015 7.5C12.5015 6.11929 11.3822 5 10.0015 5C9.25488 5 8.58472 5.32727 8.12663 5.84618C7.91482 6.08612 7.74835 6.36703 7.64062 6.67551" stroke="#1E1E1E" stroke-width="1.5" stroke-linecap="round"/>
<path id="Oval" fill-rule="evenodd" clip-rule="evenodd" d="M10.0013 14.9999C10.4615 14.9999 10.8346 14.6268 10.8346 14.1666C10.8346 13.7063 10.4615 13.3333 10.0013 13.3333C9.54106 13.3333 9.16797 13.7063 9.16797 14.1666C9.16797 14.6268 9.54106 14.9999 10.0013 14.9999Z" fill="#1E1E1E"/>
<path id="Oval_2" fill-rule="evenodd" clip-rule="evenodd" d="M10.0013 18.3334C14.6037 18.3334 18.3346 14.6025 18.3346 10.0001C18.3346 5.39771 14.6037 1.66675 10.0013 1.66675C5.39893 1.66675 1.66797 5.39771 1.66797 10.0001C1.66797 14.6025 5.39893 18.3334 10.0013 18.3334Z" stroke="#1E1E1E" stroke-width="1.5"/>
</g>
</svg>
